<mxfile host="app.diagrams.net" agent="Mozilla/5.0 (Windows NT 10.0; Win64; x64) AppleWebKit/537.36 (KHTML, like Gecko) Chrome/131.0.0.0 Safari/537.36" version="26.0.6">
  <diagram name="Page-1" id="5GzauYMWyunE17twXkIC">
    <mxGraphModel dx="2035" dy="914" grid="1" gridSize="10" guides="1" tooltips="1" connect="1" arrows="1" fold="1" page="1" pageScale="1" pageWidth="827" pageHeight="1169" math="0" shadow="0">
      <root>
        <mxCell id="0" />
        <mxCell id="1" parent="0" />
        <mxCell id="n0eRdrRnJ4e8vzkCqtoB-21" value="Text" style="text;html=1;align=center;verticalAlign=middle;whiteSpace=wrap;rounded=0;" parent="1" vertex="1">
          <mxGeometry x="-15" y="399" width="60" height="30" as="geometry" />
        </mxCell>
        <mxCell id="n0eRdrRnJ4e8vzkCqtoB-23" value="loopback" style="rounded=1;whiteSpace=wrap;html=1;fontSize=14;" parent="1" vertex="1">
          <mxGeometry x="-30" y="384" width="120" height="60" as="geometry" />
        </mxCell>
        <mxCell id="n0eRdrRnJ4e8vzkCqtoB-31" value="" style="endArrow=none;html=1;rounded=0;exitX=1;exitY=0.5;exitDx=0;exitDy=0;entryX=0.16;entryY=0.55;entryDx=0;entryDy=0;entryPerimeter=0;" parent="1" source="n0eRdrRnJ4e8vzkCqtoB-23" target="HWoDKfjhivn7l8IyEwLp-20" edge="1">
          <mxGeometry width="50" height="50" relative="1" as="geometry">
            <mxPoint x="145" y="494" as="sourcePoint" />
            <mxPoint x="145" y="414" as="targetPoint" />
          </mxGeometry>
        </mxCell>
        <mxCell id="n0eRdrRnJ4e8vzkCqtoB-37" value="&lt;b&gt;&lt;font&gt;127.0.0.1&lt;/font&gt;&lt;/b&gt;" style="text;html=1;align=center;verticalAlign=middle;whiteSpace=wrap;rounded=0;fontSize=14;" parent="1" vertex="1">
          <mxGeometry x="-30" y="449" width="60" height="30" as="geometry" />
        </mxCell>
        <mxCell id="DnKfh_ipyuSeufd-dQkW-18" value="Port: 8081" style="text;html=1;align=center;verticalAlign=middle;whiteSpace=wrap;rounded=0;" parent="1" vertex="1">
          <mxGeometry x="-30" y="474" width="60" height="30" as="geometry" />
        </mxCell>
        <mxCell id="HWoDKfjhivn7l8IyEwLp-1" value="" style="rounded=0;whiteSpace=wrap;html=1;movable=1;resizable=1;rotatable=1;deletable=1;editable=1;locked=0;connectable=1;" parent="1" vertex="1">
          <mxGeometry x="414" y="40" width="746" height="850" as="geometry" />
        </mxCell>
        <mxCell id="4HCjTHpq-cK8z1Mcnclx-2" value="" style="rounded=0;whiteSpace=wrap;html=1;labelBackgroundColor=default;movable=1;resizable=1;rotatable=1;deletable=1;editable=1;locked=0;connectable=1;" parent="1" vertex="1">
          <mxGeometry x="920" y="60" width="210" height="230" as="geometry" />
        </mxCell>
        <mxCell id="HWoDKfjhivn7l8IyEwLp-2" value="" style="rounded=0;whiteSpace=wrap;html=1;" parent="1" vertex="1">
          <mxGeometry x="960" y="139" width="150" height="120" as="geometry" />
        </mxCell>
        <mxCell id="HWoDKfjhivn7l8IyEwLp-3" value="&lt;div&gt;&lt;span style=&quot;background-color: transparent; color: light-dark(rgb(0, 0, 0), rgb(255, 255, 255));&quot;&gt;kube-master2 :&lt;/span&gt;&lt;/div&gt;&lt;div&gt;&lt;a style=&quot;box-sizing: inherit; font-family: Lato, arial, helvetica, sans-serif; text-align: start;&quot; href=&quot;https://net4255.luxbulb.org/dashboard/c/local/explorer/node/kube-master-1#&quot; class=&quot;copy-to-clipboard-text&quot; data-v-90a55cf8=&quot;&quot;&gt;&lt;font style=&quot;color: rgb(0, 0, 0);&quot;&gt;157.159.11.19&lt;/font&gt;&lt;/a&gt;5&lt;/div&gt;" style="text;html=1;align=center;verticalAlign=middle;whiteSpace=wrap;rounded=0;fontSize=16;" parent="1" vertex="1">
          <mxGeometry x="990" y="149" width="90" height="30" as="geometry" />
        </mxCell>
        <mxCell id="HWoDKfjhivn7l8IyEwLp-4" value="" style="rounded=0;whiteSpace=wrap;html=1;" parent="1" vertex="1">
          <mxGeometry x="975" y="189" width="120" height="60" as="geometry" />
        </mxCell>
        <mxCell id="HWoDKfjhivn7l8IyEwLp-5" value="&lt;font style=&quot;color: rgb(0, 0, 0);&quot;&gt;Pod1:&lt;/font&gt;&lt;div&gt;10.42.2.52&lt;/div&gt;" style="text;html=1;align=center;verticalAlign=middle;whiteSpace=wrap;rounded=0;fontSize=16;" parent="1" vertex="1">
          <mxGeometry x="990" y="194" width="80" height="45" as="geometry" />
        </mxCell>
        <mxCell id="HWoDKfjhivn7l8IyEwLp-15" value="" style="rounded=1;whiteSpace=wrap;html=1;" parent="1" vertex="1">
          <mxGeometry x="695" y="594" width="120" height="60" as="geometry" />
        </mxCell>
        <mxCell id="HWoDKfjhivn7l8IyEwLp-16" value="Cluster IP:&lt;div&gt;10.43.119.143&lt;/div&gt;" style="text;html=1;align=center;verticalAlign=middle;whiteSpace=wrap;rounded=0;fontSize=14;" parent="1" vertex="1">
          <mxGeometry x="719" y="609" width="76" height="30" as="geometry" />
        </mxCell>
        <mxCell id="HWoDKfjhivn7l8IyEwLp-20" value="" style="ellipse;shape=cloud;whiteSpace=wrap;html=1;" parent="1" vertex="1">
          <mxGeometry x="135" y="369" width="136" height="80" as="geometry" />
        </mxCell>
        <mxCell id="HWoDKfjhivn7l8IyEwLp-21" value="Kube DNS" style="text;html=1;align=center;verticalAlign=middle;whiteSpace=wrap;rounded=0;fontSize=14;" parent="1" vertex="1">
          <mxGeometry x="168" y="396" width="80" height="30" as="geometry" />
        </mxCell>
        <mxCell id="HWoDKfjhivn7l8IyEwLp-22" value="Cluster" style="text;html=1;align=center;verticalAlign=middle;whiteSpace=wrap;rounded=0;fontSize=16;" parent="1" vertex="1">
          <mxGeometry x="445" y="70" width="60" height="30" as="geometry" />
        </mxCell>
        <mxCell id="HWoDKfjhivn7l8IyEwLp-23" value="" style="endArrow=classic;html=1;rounded=0;exitX=0.96;exitY=0.7;exitDx=0;exitDy=0;exitPerimeter=0;entryX=0;entryY=0.5;entryDx=0;entryDy=0;" parent="1" source="HWoDKfjhivn7l8IyEwLp-20" target="HWoDKfjhivn7l8IyEwLp-26" edge="1">
          <mxGeometry width="50" height="50" relative="1" as="geometry">
            <mxPoint x="625" y="354" as="sourcePoint" />
            <mxPoint x="675" y="304" as="targetPoint" />
          </mxGeometry>
        </mxCell>
        <mxCell id="HWoDKfjhivn7l8IyEwLp-24" value="Replaces the name with a Cluster IP" style="text;html=1;align=center;verticalAlign=middle;whiteSpace=wrap;rounded=0;fontSize=14;" parent="1" vertex="1">
          <mxGeometry x="285" y="430.25" width="140" height="30" as="geometry" />
        </mxCell>
        <mxCell id="HWoDKfjhivn7l8IyEwLp-26" value="" style="rounded=1;whiteSpace=wrap;html=1;" parent="1" vertex="1">
          <mxGeometry x="470" y="300" width="150" height="250" as="geometry" />
        </mxCell>
        <mxCell id="HWoDKfjhivn7l8IyEwLp-27" value="Kube Proxy" style="text;html=1;align=center;verticalAlign=middle;whiteSpace=wrap;rounded=0;fontSize=14;" parent="1" vertex="1">
          <mxGeometry x="505" y="310" width="80" height="30" as="geometry" />
        </mxCell>
        <mxCell id="HWoDKfjhivn7l8IyEwLp-31" value="Watches service ressources" style="text;html=1;align=center;verticalAlign=middle;whiteSpace=wrap;rounded=0;fontSize=14;" parent="1" vertex="1">
          <mxGeometry x="470" y="259" width="140" height="30" as="geometry" />
        </mxCell>
        <mxCell id="HWoDKfjhivn7l8IyEwLp-37" value="" style="endArrow=classic;html=1;rounded=0;entryX=0;entryY=0.5;entryDx=0;entryDy=0;exitX=1;exitY=0.5;exitDx=0;exitDy=0;" parent="1" source="HWoDKfjhivn7l8IyEwLp-26" target="HWoDKfjhivn7l8IyEwLp-15" edge="1">
          <mxGeometry width="50" height="50" relative="1" as="geometry">
            <mxPoint x="505" y="360" as="sourcePoint" />
            <mxPoint x="525" y="390" as="targetPoint" />
          </mxGeometry>
        </mxCell>
        <mxCell id="HWoDKfjhivn7l8IyEwLp-41" value="" style="endArrow=none;dashed=1;html=1;dashPattern=1 3;strokeWidth=2;rounded=0;entryX=0;entryY=0.5;entryDx=0;entryDy=0;exitX=1;exitY=0.5;exitDx=0;exitDy=0;" parent="1" source="IIwvawAWmTtU7K9FXSLq-22" target="HWoDKfjhivn7l8IyEwLp-2" edge="1">
          <mxGeometry width="50" height="50" relative="1" as="geometry">
            <mxPoint x="790" y="199" as="sourcePoint" />
            <mxPoint x="690" y="300" as="targetPoint" />
          </mxGeometry>
        </mxCell>
        <mxCell id="4HCjTHpq-cK8z1Mcnclx-3" value="mongodb-deployment" style="text;html=1;align=center;verticalAlign=middle;whiteSpace=wrap;rounded=0;fontSize=16;" parent="1" vertex="1">
          <mxGeometry x="920" y="60" width="190" height="30" as="geometry" />
        </mxCell>
        <mxCell id="IIwvawAWmTtU7K9FXSLq-5" value="" style="rounded=0;whiteSpace=wrap;html=1;labelBackgroundColor=default;movable=1;resizable=1;rotatable=1;deletable=1;editable=1;locked=0;connectable=1;" parent="1" vertex="1">
          <mxGeometry x="920" y="325" width="210" height="530" as="geometry" />
        </mxCell>
        <mxCell id="IIwvawAWmTtU7K9FXSLq-6" value="" style="rounded=0;whiteSpace=wrap;html=1;" parent="1" vertex="1">
          <mxGeometry x="960" y="404" width="150" height="120" as="geometry" />
        </mxCell>
        <mxCell id="IIwvawAWmTtU7K9FXSLq-7" value="&lt;div&gt;&lt;span style=&quot;background-color: transparent; color: light-dark(rgb(0, 0, 0), rgb(255, 255, 255));&quot;&gt;kube-master1 :&lt;/span&gt;&lt;/div&gt;&lt;div&gt;&lt;a data-v-90a55cf8=&quot;&quot; class=&quot;copy-to-clipboard-text&quot; href=&quot;https://net4255.luxbulb.org/dashboard/c/local/explorer/node/kube-master-1#&quot; style=&quot;box-sizing: inherit; font-family: Lato, arial, helvetica, sans-serif; text-align: start;&quot;&gt;&lt;font style=&quot;color: rgb(0, 0, 0);&quot;&gt;157.159.11.194&lt;/font&gt;&lt;/a&gt;&lt;/div&gt;" style="text;html=1;align=center;verticalAlign=middle;whiteSpace=wrap;rounded=0;fontSize=16;" parent="1" vertex="1">
          <mxGeometry x="990" y="414" width="90" height="30" as="geometry" />
        </mxCell>
        <mxCell id="IIwvawAWmTtU7K9FXSLq-8" value="" style="rounded=0;whiteSpace=wrap;html=1;" parent="1" vertex="1">
          <mxGeometry x="975" y="454" width="120" height="60" as="geometry" />
        </mxCell>
        <mxCell id="IIwvawAWmTtU7K9FXSLq-9" value="&lt;font style=&quot;color: rgb(0, 0, 0);&quot;&gt;Pod1:&lt;/font&gt;&lt;div&gt;10.42.0.88&lt;/div&gt;" style="text;html=1;align=center;verticalAlign=middle;whiteSpace=wrap;rounded=0;fontSize=16;" parent="1" vertex="1">
          <mxGeometry x="990" y="459" width="80" height="45" as="geometry" />
        </mxCell>
        <mxCell id="IIwvawAWmTtU7K9FXSLq-10" value="" style="rounded=0;whiteSpace=wrap;html=1;" parent="1" vertex="1">
          <mxGeometry x="960" y="554" width="150" height="120" as="geometry" />
        </mxCell>
        <mxCell id="mtA8ESACh7whlvK9b3tV-1" value="" style="edgeStyle=orthogonalEdgeStyle;rounded=0;orthogonalLoop=1;jettySize=auto;html=1;" edge="1" parent="1" source="IIwvawAWmTtU7K9FXSLq-11" target="IIwvawAWmTtU7K9FXSLq-9">
          <mxGeometry relative="1" as="geometry" />
        </mxCell>
        <mxCell id="IIwvawAWmTtU7K9FXSLq-11" value="&lt;div&gt;kube-master2:&lt;/div&gt;&lt;div&gt;&lt;a data-v-90a55cf8=&quot;&quot; class=&quot;copy-to-clipboard-text&quot; href=&quot;https://net4255.luxbulb.org/dashboard/c/local/explorer/node/kube-master-2#&quot; style=&quot;box-sizing: inherit; font-family: Lato, arial, helvetica, sans-serif; text-align: start;&quot;&gt;&lt;font style=&quot;color: rgb(0, 0, 0);&quot;&gt;157.159.11.195&lt;/font&gt;&lt;/a&gt;&lt;/div&gt;" style="text;html=1;align=center;verticalAlign=middle;whiteSpace=wrap;rounded=0;fontSize=16;" parent="1" vertex="1">
          <mxGeometry x="989" y="564" width="90" height="30" as="geometry" />
        </mxCell>
        <mxCell id="IIwvawAWmTtU7K9FXSLq-12" value="" style="rounded=0;whiteSpace=wrap;html=1;" parent="1" vertex="1">
          <mxGeometry x="975" y="604" width="120" height="60" as="geometry" />
        </mxCell>
        <mxCell id="IIwvawAWmTtU7K9FXSLq-13" value="Pod2:&lt;div&gt;10.42.2.71&lt;/div&gt;" style="text;html=1;align=center;verticalAlign=middle;whiteSpace=wrap;rounded=0;fontSize=16;" parent="1" vertex="1">
          <mxGeometry x="991" y="609" width="80" height="45" as="geometry" />
        </mxCell>
        <mxCell id="IIwvawAWmTtU7K9FXSLq-14" value="webdb-deployment" style="text;html=1;align=center;verticalAlign=middle;whiteSpace=wrap;rounded=0;fontSize=16;" parent="1" vertex="1">
          <mxGeometry x="920" y="325" width="190" height="30" as="geometry" />
        </mxCell>
        <mxCell id="IIwvawAWmTtU7K9FXSLq-15" value="" style="rounded=0;whiteSpace=wrap;html=1;" parent="1" vertex="1">
          <mxGeometry x="960" y="710" width="150" height="120" as="geometry" />
        </mxCell>
        <mxCell id="IIwvawAWmTtU7K9FXSLq-16" value="&lt;div&gt;kube-agent2:&lt;/div&gt;&lt;div&gt;&lt;a style=&quot;box-sizing: inherit; font-family: Lato, arial, helvetica, sans-serif; text-align: start;&quot; href=&quot;https://net4255.luxbulb.org/dashboard/c/local/explorer/node/kube-master-2#&quot; class=&quot;copy-to-clipboard-text&quot; data-v-90a55cf8=&quot;&quot;&gt;&lt;font style=&quot;color: rgb(0, 0, 0);&quot;&gt;157.159.11.19&lt;/font&gt;&lt;/a&gt;8&lt;/div&gt;" style="text;html=1;align=center;verticalAlign=middle;whiteSpace=wrap;rounded=0;fontSize=16;" parent="1" vertex="1">
          <mxGeometry x="989" y="720" width="90" height="30" as="geometry" />
        </mxCell>
        <mxCell id="IIwvawAWmTtU7K9FXSLq-17" value="" style="rounded=0;whiteSpace=wrap;html=1;" parent="1" vertex="1">
          <mxGeometry x="975" y="760" width="120" height="60" as="geometry" />
        </mxCell>
        <mxCell id="IIwvawAWmTtU7K9FXSLq-18" value="Pod3:&lt;div&gt;10.42.3.23&lt;/div&gt;" style="text;html=1;align=center;verticalAlign=middle;whiteSpace=wrap;rounded=0;fontSize=16;" parent="1" vertex="1">
          <mxGeometry x="991" y="765" width="80" height="45" as="geometry" />
        </mxCell>
        <mxCell id="IIwvawAWmTtU7K9FXSLq-19" value="" style="endArrow=none;dashed=1;html=1;dashPattern=1 3;strokeWidth=2;rounded=0;entryX=0;entryY=0.5;entryDx=0;entryDy=0;exitX=1;exitY=0.5;exitDx=0;exitDy=0;" parent="1" source="HWoDKfjhivn7l8IyEwLp-15" target="IIwvawAWmTtU7K9FXSLq-10" edge="1">
          <mxGeometry width="50" height="50" relative="1" as="geometry">
            <mxPoint x="780" y="620" as="sourcePoint" />
            <mxPoint x="970" y="480" as="targetPoint" />
          </mxGeometry>
        </mxCell>
        <mxCell id="HWoDKfjhivn7l8IyEwLp-42" value="" style="endArrow=none;dashed=1;html=1;dashPattern=1 3;strokeWidth=2;rounded=0;entryX=0.032;entryY=0.575;entryDx=0;entryDy=0;entryPerimeter=0;exitX=1;exitY=0.25;exitDx=0;exitDy=0;" parent="1" source="HWoDKfjhivn7l8IyEwLp-15" target="IIwvawAWmTtU7K9FXSLq-6" edge="1">
          <mxGeometry width="50" height="50" relative="1" as="geometry">
            <mxPoint x="780" y="610" as="sourcePoint" />
            <mxPoint x="960" y="470" as="targetPoint" />
          </mxGeometry>
        </mxCell>
        <mxCell id="IIwvawAWmTtU7K9FXSLq-20" value="" style="endArrow=none;dashed=1;html=1;dashPattern=1 3;strokeWidth=2;rounded=0;entryX=0;entryY=0.5;entryDx=0;entryDy=0;exitX=1;exitY=0.75;exitDx=0;exitDy=0;" parent="1" source="HWoDKfjhivn7l8IyEwLp-15" target="IIwvawAWmTtU7K9FXSLq-15" edge="1">
          <mxGeometry width="50" height="50" relative="1" as="geometry">
            <mxPoint x="780" y="630" as="sourcePoint" />
            <mxPoint x="970" y="624" as="targetPoint" />
          </mxGeometry>
        </mxCell>
        <mxCell id="IIwvawAWmTtU7K9FXSLq-21" value="" style="endArrow=classic;html=1;rounded=0;exitX=1;exitY=0.25;exitDx=0;exitDy=0;entryX=0;entryY=0.5;entryDx=0;entryDy=0;" parent="1" source="HWoDKfjhivn7l8IyEwLp-26" target="IIwvawAWmTtU7K9FXSLq-22" edge="1">
          <mxGeometry width="50" height="50" relative="1" as="geometry">
            <mxPoint x="845" y="420" as="sourcePoint" />
            <mxPoint x="705" y="200" as="targetPoint" />
          </mxGeometry>
        </mxCell>
        <mxCell id="IIwvawAWmTtU7K9FXSLq-22" value="" style="rounded=1;whiteSpace=wrap;html=1;" parent="1" vertex="1">
          <mxGeometry x="685" y="169" width="120" height="60" as="geometry" />
        </mxCell>
        <mxCell id="IIwvawAWmTtU7K9FXSLq-23" value="Cluster IP:&lt;div&gt;10.42.2.52&lt;/div&gt;" style="text;html=1;align=center;verticalAlign=middle;whiteSpace=wrap;rounded=0;fontSize=14;" parent="1" vertex="1">
          <mxGeometry x="709" y="184" width="76" height="30" as="geometry" />
        </mxCell>
        <mxCell id="IIwvawAWmTtU7K9FXSLq-31" value="iptables" style="rounded=1;whiteSpace=wrap;html=1;fontSize=16;" parent="1" vertex="1">
          <mxGeometry x="486" y="400" width="120" height="60" as="geometry" />
        </mxCell>
        <mxCell id="IIwvawAWmTtU7K9FXSLq-33" value="Replaces cluster IP with pod IP" style="text;html=1;align=center;verticalAlign=middle;whiteSpace=wrap;rounded=0;fontSize=14;" parent="1" vertex="1">
          <mxGeometry x="480" y="464" width="140" height="30" as="geometry" />
        </mxCell>
      </root>
    </mxGraphModel>
  </diagram>
</mxfile>
